<?xml version="1.0" standalone="no"?>
<!DOCTYPE svg PUBLIC "-//W3C//DTD SVG 20010904//EN"
 "http://www.w3.org/TR/2001/REC-SVG-20010904/DTD/svg10.dtd">
<svg version="1.0" xmlns="http://www.w3.org/2000/svg"
 width="1000.000000pt" height="500.000000pt" viewBox="0 0 1000.000000 500.000000"
 preserveAspectRatio="xMidYMid meet">

<g transform="translate(0.000000,500.000000) scale(0.100000,-0.100000)"
fill="#000000" stroke="none">
<path d="M1420 3946 c-203 -57 -395 -236 -473 -442 l-22 -59 -3 -925 -3 -925
25 -80 c62 -197 251 -387 453 -454 l62 -21 3541 0 3541 0 62 21 c98 32 195 95
277 178 79 81 125 150 169 253 l26 63 0 940 0 940 -23 67 c-65 189 -254 373
-443 433 l-80 25 -3532 -1 c-2790 -1 -3541 -3 -3577 -13z m7053 -221 c183 -39
333 -189 372 -372 21 -100 21 -1606 0 -1706 -38 -182 -176 -324 -362 -372 -50
-13 -481 -15 -3483 -15 -3755 0 -3475 -4 -3599 58 -120 60 -225 202 -251 341
-13 72 -14 1609 0 1682 34 181 192 345 373 384 96 21 6851 21 6950 0z"/>
<path d="M1770 2525 l0 -635 225 0 225 0 0 225 0 225 230 0 230 0 0 150 0 150
-230 0 -230 0 0 95 0 95 285 0 285 0 0 165 0 165 -510 0 -510 0 0 -635z"/>
<path d="M2900 2525 l0 -635 215 0 215 0 0 635 0 635 -215 0 -215 0 0 -635z"/>
<path d="M3665 3141 c-153 -38 -257 -210 -226 -376 30 -162 144 -250 502 -389
142 -55 179 -77 179 -107 0 -37 -16 -39 -347 -39 l-323 0 0 -176 0 -175 393 3
392 3 55 27 c140 70 208 196 198 369 -11 189 -130 299 -443 409 -66 23 -132
49 -147 56 -37 19 -52 48 -38 74 10 19 21 20 300 20 l290 0 0 155 0 155 -377
-1 c-208 -1 -391 -4 -408 -8z"/>
<path d="M4600 2515 l0 -635 220 0 220 0 2 248 3 247 133 3 132 3 0 -251 0
-250 220 0 220 0 0 635 0 635 -220 0 -220 0 0 -210 0 -211 -132 3 -133 3 -3
208 -2 207 -220 0 -220 0 0 -635z"/>
<path d="M5880 2515 l0 -635 550 0 550 0 0 170 0 170 -327 2 -328 3 -3 88 -3
87 271 0 270 0 0 150 0 150 -267 2 -268 3 0 70 0 70 328 3 327 2 0 150 0 150
-550 0 -550 0 0 -635z"/>
<path d="M7080 2515 l0 -635 220 0 220 0 0 225 0 225 63 0 c133 0 171 -51 186
-250 6 -69 15 -142 21 -162 l11 -38 219 0 c121 0 220 2 220 4 0 3 -5 17 -11
33 -6 15 -14 98 -19 183 -6 118 -13 168 -28 208 -26 67 -65 118 -109 144 l-34
21 28 17 c102 63 160 187 151 326 -11 164 -128 292 -297 324 -31 6 -223 10
-447 10 l-394 0 0 -635z m616 325 c64 -31 87 -110 55 -188 -20 -47 -56 -62
-151 -62 l-80 0 0 135 0 135 67 0 c47 0 79 -6 109 -20z"/>
<path d="M8394 3120 c-26 -10 -62 -55 -71 -88 -9 -37 14 -99 46 -121 19 -14
45 -21 76 -21 40 0 52 5 81 34 29 29 34 41 34 80 0 56 -22 94 -67 112 -36 16
-68 17 -99 4z m119 -50 c38 -42 37 -92 -2 -131 -76 -75 -205 15 -157 110 34
66 109 75 159 21z"/>
<path d="M8400 3015 c0 -37 4 -65 10 -65 6 0 10 11 10 25 0 14 5 25 10 25 6 0
16 -11 22 -25 6 -14 20 -25 31 -25 18 0 18 1 4 24 -14 21 -14 25 -2 30 9 3 15
18 15 35 0 31 -18 41 -72 41 -28 0 -28 -1 -28 -65z m78 23 c-3 -7 -15 -13 -28
-13 -13 0 -25 6 -27 13 -3 8 6 12 27 12 21 0 30 -4 28 -12z"/>
</g>
</svg>
