<?xml version="1.0" standalone="no"?>
<!DOCTYPE svg PUBLIC "-//W3C//DTD SVG 20010904//EN"
 "http://www.w3.org/TR/2001/REC-SVG-20010904/DTD/svg10.dtd">
<svg version="1.0" xmlns="http://www.w3.org/2000/svg"
 width="646.000000pt" height="185.000000pt" viewBox="0 0 646.000000 185.000000"
 preserveAspectRatio="xMidYMid meet">

<g transform="translate(0.000000,185.000000) scale(0.100000,-0.100000)"
fill="#000000" stroke="none">
<path d="M808 1829 c-290 -42 -568 -247 -703 -517 -62 -124 -88 -243 -88 -407
-1 -175 21 -276 94 -423 114 -229 316 -379 603 -444 125 -29 364 -31 486 -4
109 23 262 78 311 111 l39 25 0 570 c0 314 -3 570 -6 570 -14 0 -624 -604
-621 -614 2 -6 20 -9 40 -8 80 7 145 -55 132 -127 -10 -53 -21 -69 -65 -91
-31 -16 -59 -20 -133 -20 -81 0 -100 4 -148 27 -71 35 -175 141 -218 223 -30
57 -36 76 -39 153 -8 163 35 289 135 397 117 126 312 171 503 114 l53 -16 164
164 c185 185 180 167 63 220 -179 82 -431 122 -602 97z"/>
<path d="M4281 1599 l-184 -189 371 0 c205 0 372 3 372 8 0 8 -363 372 -370
371 -3 -1 -88 -86 -189 -190z"/>
<path d="M5375 1374 c-11 -2 -45 -9 -75 -15 -30 -6 -93 -29 -140 -51 -70 -33
-100 -56 -170 -127 -149 -150 -195 -272 -188 -491 6 -153 37 -257 110 -366 81
-122 182 -201 306 -243 108 -37 189 -42 500 -35 l292 7 0 208 0 207 -37 5
c-21 3 -92 5 -157 6 -65 0 -121 3 -124 5 -8 9 114 140 248 266 124 116 130
124 130 161 0 68 -61 173 -154 264 -92 92 -178 142 -296 174 -75 20 -207 34
-245 25z m175 -425 l49 -21 -147 -154 c-81 -85 -152 -154 -158 -154 -5 0 -20
20 -32 45 -25 53 -29 129 -8 178 17 40 72 96 111 113 46 20 129 17 185 -7z"/>
<path d="M3424 1356 c-76 -18 -172 -64 -243 -119 -64 -49 -166 -174 -201 -246
-14 -28 -28 -51 -31 -51 -3 0 -21 30 -39 68 -47 96 -170 217 -270 265 -401
195 -843 -2 -961 -429 -29 -104 -30 -259 -1 -356 57 -196 254 -382 449 -423
55 -12 184 -15 656 -15 l587 0 0 389 c0 421 1 429 55 483 37 37 106 62 151 55
51 -8 108 -49 127 -90 15 -31 17 -83 17 -436 l0 -401 211 0 210 0 -3 443 c-4
432 -4 443 -27 507 -66 184 -158 279 -327 336 -97 33 -263 42 -360 20z m-1024
-467 l44 -20 -144 -144 c-80 -80 -148 -145 -152 -145 -4 0 -20 18 -35 41 -56
84 -37 183 49 252 63 51 145 56 238 16z m753 -223 l176 -183 -46 -7 c-65 -9
-683 -8 -683 1 0 9 362 373 371 373 3 0 85 -83 182 -184z"/>
<path d="M4270 675 l0 -625 210 0 210 0 0 625 0 625 -210 0 -210 0 0 -625z"/>
<path d="M6213 341 c-130 -60 -98 -272 46 -296 147 -25 249 143 154 256 -50
59 -124 74 -200 40z m135 -37 c75 -52 65 -180 -17 -213 -77 -32 -151 22 -151
111 0 44 4 54 34 84 27 27 42 34 73 34 21 0 49 -7 61 -16z"/>
<path d="M6230 205 c0 -69 3 -85 15 -85 10 0 15 10 15 29 0 44 18 47 37 7 12
-27 23 -36 41 -36 l24 0 -20 33 c-19 33 -19 34 -1 45 26 16 24 57 -3 76 -12 9
-42 16 -65 16 l-43 0 0 -85z m88 33 c3 -14 -3 -18 -27 -18 -29 0 -41 17 -24
34 13 13 48 1 51 -16z"/>
</g>
</svg>
